<svg xmlns="http://www.w3.org/2000/svg" width="3.229" height="5.874" viewBox="0 0 3.229 5.874">
  <path id="expand_more_FILL0_wght300_GRAD0_opsz48" d="M16.13,20.824a.4.4,0,0,1-.149-.027.3.3,0,0,1-.122-.095l-2.577-2.577a.33.33,0,0,1,0-.434.27.27,0,0,1,.224-.095.388.388,0,0,1,.21.095l2.414,2.414,2.414-2.414a.317.317,0,0,1,.217-.088.253.253,0,0,1,.217.088.251.251,0,0,1,.095.224.4.4,0,0,1-.095.224L16.4,20.7a.3.3,0,0,1-.122.095A.4.4,0,0,1,16.13,20.824Z" transform="translate(20.824 -13.2) rotate(90)" fill="rgba(255,255,255,0.8)"/>
</svg>
