<svg xmlns="http://www.w3.org/2000/svg" width="35.846" height="65.203" viewBox="0 0 35.846 65.203">
  <path id="location_ico2" d="M45.718,53.441a4.42,4.42,0,0,1-1.656-.3,3.331,3.331,0,0,1-1.355-1.054l-28.6-28.6a3.255,3.255,0,0,1-.9-2.409,3.255,3.255,0,0,1,.9-2.409,2.993,2.993,0,0,1,2.484-1.054,4.3,4.3,0,0,1,2.333,1.054l26.8,26.8,26.8-26.8a3.518,3.518,0,0,1,2.409-.979,2.813,2.813,0,0,1,2.409.979,2.783,2.783,0,0,1,1.054,2.484,4.439,4.439,0,0,1-1.054,2.484l-28.6,28.453a3.331,3.331,0,0,1-1.355,1.054A4.42,4.42,0,0,1,45.718,53.441Z" transform="translate(53.441 -13.2) rotate(90)" fill="rgba(255,255,255,0.8)"/>
</svg>
