<svg xmlns="http://www.w3.org/2000/svg" width="18.934" height="28.638" viewBox="0 0 18.934 28.638">
  <path id="scroll" d="M21.467,34.338A9.362,9.362,0,0,1,12,24.871v-9.7A9.362,9.362,0,0,1,21.467,5.7a9.362,9.362,0,0,1,9.467,9.467v9.7a9.362,9.362,0,0,1-9.467,9.467Zm.592-19.171h7.652A8.052,8.052,0,0,0,27.5,9.507a7.962,7.962,0,0,0-5.444-2.623Zm-8.836,0h7.652V6.883a7.962,7.962,0,0,0-5.444,2.623A8.052,8.052,0,0,0,13.223,15.167Zm8.244,17.948a7.968,7.968,0,0,0,5.818-2.406,7.917,7.917,0,0,0,2.426-5.838V16.39H13.223v8.481a8.215,8.215,0,0,0,8.244,8.244ZM21.467,16.39ZM22.059,15.167ZM20.875,15.167ZM21.467,16.39Z" transform="translate(-12 -5.7)" fill="#fff"/>
</svg>
