<svg xmlns="http://www.w3.org/2000/svg" width="38.602" height="40.8" viewBox="0 0 38.602 40.8">
  <path id="support_ico2" d="M9.05,44.4a1.15,1.15,0,1,1,0-2.3h29.9a1.15,1.15,0,1,1,0,2.3Zm0-38.5A1.112,1.112,0,0,1,7.9,4.75,1.112,1.112,0,0,1,9.05,3.6h29.9A1.112,1.112,0,0,1,40.1,4.75,1.112,1.112,0,0,1,38.95,5.9ZM24,26.85a5.184,5.184,0,0,0,3.85-1.575A5.311,5.311,0,0,0,29.4,21.4,5.3,5.3,0,0,0,24,16a5.184,5.184,0,0,0-3.85,1.575A5.311,5.311,0,0,0,18.6,21.45a5.3,5.3,0,0,0,5.4,5.4ZM7.6,39a2.9,2.9,0,0,1-2.9-2.9V11.9a2.75,2.75,0,0,1,.85-2.1A2.884,2.884,0,0,1,7.6,9H40.4a2.9,2.9,0,0,1,2.9,2.9V36.1A2.9,2.9,0,0,1,40.4,39Zm4.85-2.25a15.4,15.4,0,0,1,5.525-3.975A15.662,15.662,0,0,1,24,31.5a15.845,15.845,0,0,1,6.05,1.275,14.9,14.9,0,0,1,5.5,3.975H40.4a.545.545,0,0,0,.425-.2A.666.666,0,0,0,41,36.1V11.9a.666.666,0,0,0-.175-.45.545.545,0,0,0-.425-.2H7.6a.545.545,0,0,0-.425.2A.666.666,0,0,0,7,11.9V36.1a.666.666,0,0,0,.175.45.545.545,0,0,0,.425.2Zm3.7,0H31.9a10.845,10.845,0,0,0-3.475-2.175A12.026,12.026,0,0,0,24,33.8a11.83,11.83,0,0,0-4.4.775A10.915,10.915,0,0,0,16.15,36.75ZM24,24.6a2.952,2.952,0,0,1-2.2-.925,3.076,3.076,0,0,1-.9-2.225,3.137,3.137,0,0,1,.9-2.275,3.079,3.079,0,0,1,4.4,0,3.137,3.137,0,0,1,.9,2.275,3.076,3.076,0,0,1-.9,2.225A2.952,2.952,0,0,1,24,24.6ZM24,24Z" transform="translate(-4.699 -3.6)" fill="#666"/>
</svg>
