<svg xmlns="http://www.w3.org/2000/svg" width="50.689" height="45.802" viewBox="0 0 50.689 45.802">
  <path id="support_ico3" d="M27.862,48.026a2.459,2.459,0,0,0,.845-.181,2.166,2.166,0,0,0,.784-.483L49.224,27.629a6.142,6.142,0,0,0,1.3-1.871,5.182,5.182,0,0,0,.453-2.112,5.61,5.61,0,0,0-.453-2.172,5.938,5.938,0,0,0-1.3-1.931L39.086,9.405a5.711,5.711,0,0,0-1.871-1.267,5.491,5.491,0,0,0-4.224,0,5.711,5.711,0,0,0-1.871,1.267l-1.69,1.69L34.2,15.922a6.663,6.663,0,0,1,1.237,1.75,4.922,4.922,0,0,1,.513,2.233,4.8,4.8,0,0,1-1.509,3.5,4.8,4.8,0,0,1-3.5,1.509,5.618,5.618,0,0,1-2.233-.392,6.011,6.011,0,0,1-1.69-1.116l-4.466-4.526-10.8,10.8a2.212,2.212,0,0,0-.483.754,2.35,2.35,0,0,0-.181.875,1.9,1.9,0,0,0,.573,1.448,1.983,1.983,0,0,0,1.418.543,2.188,2.188,0,0,0,.935-.211,2.435,2.435,0,0,0,.694-.453l8.026-8.026,1.931,1.931L16.7,34.509a2.117,2.117,0,0,0-.513.784,2.672,2.672,0,0,0-.151.905,2.065,2.065,0,0,0,1.991,1.991,2.31,2.31,0,0,0,1.629-.664L27.923,29.2l1.931,1.931L21.586,39.4a3.511,3.511,0,0,0-.453.784,2.267,2.267,0,0,0-.211.905,2.06,2.06,0,0,0,2.052,2.052,2.13,2.13,0,0,0,.845-.181,2.283,2.283,0,0,0,.724-.483l8.328-8.328L34.8,36.078l-8.328,8.328a2.166,2.166,0,0,0-.483.784,2.459,2.459,0,0,0-.181.845,1.881,1.881,0,0,0,.573,1.478,2.134,2.134,0,0,0,1.478.513Zm0,2.776a4.482,4.482,0,0,1-3.319-1.418,5.065,5.065,0,0,1-1.448-3.53,5.327,5.327,0,0,1-3.44-1.418,4.919,4.919,0,0,1-1.509-3.47,5.332,5.332,0,0,1-3.44-1.509,5.088,5.088,0,0,1-1.448-3.44A5.451,5.451,0,0,1,9.789,34.6,4.332,4.332,0,0,1,8.371,31.25a5.314,5.314,0,0,1,.362-1.871,4.691,4.691,0,0,1,1.086-1.69L22.552,14.957l6.155,6.155a2.957,2.957,0,0,0,1.026.754,2.92,2.92,0,0,0,1.207.272,2.234,2.234,0,0,0,1.569-.694,2.1,2.1,0,0,0,.483-2.565,3.782,3.782,0,0,0-.724-.966L23.819,9.405a5.711,5.711,0,0,0-1.871-1.267,5.649,5.649,0,0,0-2.172-.422,5.277,5.277,0,0,0-2.082.422,5.81,5.81,0,0,0-1.841,1.267L7.466,17.854a4.945,4.945,0,0,0-1.3,1.9,7.689,7.689,0,0,0-.453,2.323,5.5,5.5,0,0,0,.422,2.112A7.845,7.845,0,0,0,7.224,26.06L5.172,28.052a10.85,10.85,0,0,1-1.539-2.746A8.853,8.853,0,0,1,3,22.017a9.01,9.01,0,0,1,.634-3.349,7.807,7.807,0,0,1,1.9-2.806l8.328-8.388A8.255,8.255,0,0,1,16.638,5.6a8.777,8.777,0,0,1,6.4,0,8.255,8.255,0,0,1,2.776,1.871l1.69,1.69,1.69-1.69A7.6,7.6,0,0,1,31.936,5.6a8.7,8.7,0,0,1,6.366,0,8.255,8.255,0,0,1,2.776,1.871L51.156,17.552a8.851,8.851,0,0,1,2.534,6.095,7.854,7.854,0,0,1-.664,3.2,9.643,9.643,0,0,1-1.871,2.776L31.423,49.293a4.408,4.408,0,0,1-1.659,1.147,5.226,5.226,0,0,1-1.9.362ZM21.043,19.3Z" transform="translate(-3 -5)" fill="#666"/>
</svg>
