<svg xmlns="http://www.w3.org/2000/svg" width="42.5" height="28.5" viewBox="0 0 42.5 28.5">
  <path id="support_ico1_w" d="M37.75,27.5a1.112,1.112,0,0,1-1.15-1.15v-5.2H31.4a1.15,1.15,0,1,1,0-2.3h5.2v-5.2a1.15,1.15,0,1,1,2.3,0v5.2h5.2a1.15,1.15,0,1,1,0,2.3H38.9v5.2a1.112,1.112,0,0,1-1.15,1.15Zm-20-4.15A6.417,6.417,0,0,1,11.1,16.7a6.385,6.385,0,0,1,1.875-4.75A6.515,6.515,0,0,1,17.75,10.1a6.515,6.515,0,0,1,4.775,1.85A6.385,6.385,0,0,1,24.4,16.7a6.417,6.417,0,0,1-6.65,6.65ZM4.2,38.6a1.442,1.442,0,0,1-1.025-.4,1.375,1.375,0,0,1-.425-1.05V34.8a4.889,4.889,0,0,1,.825-2.75A5.262,5.262,0,0,1,5.8,30.15,36.492,36.492,0,0,1,12.075,28a25.1,25.1,0,0,1,11.35,0,35.162,35.162,0,0,1,6.225,2.15,5.617,5.617,0,0,1,2.275,1.925A4.771,4.771,0,0,1,32.75,34.8v2.35a1.375,1.375,0,0,1-.425,1.05,1.442,1.442,0,0,1-1.025.4ZM5,36.35H30.5V34.8a2.768,2.768,0,0,0-.45-1.475A2.934,2.934,0,0,0,28.7,32.2a24.478,24.478,0,0,0-5.65-2.075,25.748,25.748,0,0,0-5.3-.525,24.619,24.619,0,0,0-5.3.55,27.823,27.823,0,0,0-5.7,2.05,3.209,3.209,0,0,0-1.275,1.125A2.665,2.665,0,0,0,5,34.8ZM17.75,21.1a4.21,4.21,0,0,0,3.1-1.25A4.271,4.271,0,0,0,22.1,16.7a4.27,4.27,0,0,0-4.35-4.35A4.27,4.27,0,0,0,13.4,16.7a4.271,4.271,0,0,0,1.25,3.15A4.21,4.21,0,0,0,17.75,21.1ZM17.75,16.7ZM17.75,29.6Z" transform="translate(-2.75 -10.1)" fill="#fff"/>
</svg>
