<svg xmlns="http://www.w3.org/2000/svg" width="27.344" height="38.514" viewBox="0 0 27.344 38.514">
  <path id="support_ico4" d="M24.715,27.317a4.271,4.271,0,0,1-3.245-1.372,4.737,4.737,0,0,1-1.293-3.377V9.485A4.317,4.317,0,0,1,21.5,6.319a4.586,4.586,0,0,1,6.437,0,4.317,4.317,0,0,1,1.319,3.166V22.569a4.737,4.737,0,0,1-1.293,3.377,4.271,4.271,0,0,1-3.245,1.372ZM24.715,16.185Zm0,27.329A1.173,1.173,0,0,1,23.5,42.3V36.075a13.561,13.561,0,0,1-8.468-3.931,13.13,13.13,0,0,1-3.983-8.31,1.06,1.06,0,0,1,.317-.9,1.286,1.286,0,0,1,.95-.369,1.01,1.01,0,0,1,.712.343,1.635,1.635,0,0,1,.448.818,10.587,10.587,0,0,0,3.64,7.123,11.089,11.089,0,0,0,7.6,2.849,11.117,11.117,0,0,0,7.571-2.849,10.544,10.544,0,0,0,3.667-7.123,1.635,1.635,0,0,1,.448-.818,1.059,1.059,0,0,1,.765-.343,1.2,1.2,0,0,1,.923.369,1.1,1.1,0,0,1,.29.9,13.13,13.13,0,0,1-3.983,8.31,13.561,13.561,0,0,1-8.468,3.931V42.3a1.173,1.173,0,0,1-1.213,1.213Zm0-18.571a1.984,1.984,0,0,0,1.556-.686,2.457,2.457,0,0,0,.607-1.688V9.485a2,2,0,0,0-.633-1.5,2.233,2.233,0,0,0-3.06,0,2,2,0,0,0-.633,1.5V22.569a2.457,2.457,0,0,0,.607,1.688A1.984,1.984,0,0,0,24.715,24.943Z" transform="translate(-11.043 -5)" fill="#666"/>
</svg>
