<svg xmlns="http://www.w3.org/2000/svg" width="69.695" height="63.858" viewBox="0 0 69.695 63.858">
  <path id="heartxd" d="M38.848,69.158l-3.572-3.223Q26.041,57.484,20.03,51.342a107.8,107.8,0,0,1-9.583-10.977A36.253,36.253,0,0,1,5.437,31.61,22.875,22.875,0,0,1,4,23.682,17.8,17.8,0,0,1,9.271,10.571,17.693,17.693,0,0,1,22.3,5.3a18.584,18.584,0,0,1,9.191,2.352,22.323,22.323,0,0,1,7.362,6.8A25.4,25.4,0,0,1,46.6,7.522,18.167,18.167,0,0,1,55.4,5.3a17.693,17.693,0,0,1,13.024,5.271A17.8,17.8,0,0,1,73.7,23.682a22.875,22.875,0,0,1-1.437,7.928,36.253,36.253,0,0,1-5.009,8.755,107.8,107.8,0,0,1-9.583,10.977Q51.654,57.484,42.42,65.935Zm0-6.882q8.8-8.1,14.505-13.9a115.068,115.068,0,0,0,9.06-10.149,33.621,33.621,0,0,0,4.7-7.754,18.28,18.28,0,0,0,1.35-6.8,12.883,12.883,0,0,0-3.659-9.452,12.656,12.656,0,0,0-9.409-3.7,13.939,13.939,0,0,0-8.276,2.744,19.48,19.48,0,0,0-6.185,7.71H36.67a19.269,19.269,0,0,0-6.1-7.666A13.794,13.794,0,0,0,22.3,10.527a12.656,12.656,0,0,0-9.409,3.7,12.883,12.883,0,0,0-3.659,9.452,18.614,18.614,0,0,0,1.35,6.839,33.928,33.928,0,0,0,4.7,7.841,104.559,104.559,0,0,0,9.1,10.149Q30.136,54.261,38.848,62.276ZM38.848,36.4Z" transform="translate(-4 -5.3)"/>
</svg>
