<?xml version="1.0" encoding="utf-8"?>
<!-- Generator: Adobe Illustrator 24.0.1, SVG Export Plug-In . SVG Version: 6.00 Build 0)  -->
<svg version="1.0" id="Layer_1" xmlns="http://www.w3.org/2000/svg" xmlns:xlink="http://www.w3.org/1999/xlink" x="0px" y="0px"
	 viewBox="0 0 59 53" style="enable-background:new 0 0 59 53;" xml:space="preserve">
<path d="M27.7,51.86l-2.9-2.62c-5-4.58-9.13-8.53-12.38-11.85s-5.85-6.3-7.78-8.91s-3.29-4.99-4.07-7.11
	c-0.78-2.12-1.17-4.27-1.17-6.44c0-4.24,1.43-7.79,4.28-10.65S10.06,0,14.26,0c2.69,0,5.18,0.64,7.46,1.91S26,5.02,27.7,7.43
	c1.98-2.55,4.08-4.42,6.3-5.62S38.6,0,41.14,0c4.2,0,7.72,1.43,10.58,4.28C54.57,7.13,56,10.68,56,14.93c0,2.17-0.39,4.32-1.17,6.44
	c-0.78,2.12-2.13,4.49-4.07,7.11c-1.93,2.62-4.53,5.59-7.78,8.91c-3.25,3.33-7.38,7.28-12.38,11.85L27.7,51.86z M27.7,46.27
	c4.76-4.39,8.69-8.15,11.78-11.28s5.54-5.88,7.36-8.24c1.82-2.36,3.09-4.46,3.82-6.3c0.73-1.84,1.1-3.68,1.1-5.52
	c0-3.11-0.99-5.67-2.97-7.68c-1.98-2-4.53-3.01-7.64-3.01c-2.41,0-4.65,0.74-6.72,2.23c-2.08,1.49-3.75,3.57-5.02,6.26h-3.47
	c-1.23-2.64-2.88-4.72-4.95-6.23s-4.32-2.26-6.72-2.26c-3.11,0-5.66,1-7.64,3.01s-2.97,4.56-2.97,7.68c0,1.84,0.37,3.69,1.1,5.55
	c0.73,1.86,2,3.99,3.82,6.37s4.28,5.13,7.39,8.24S22.98,41.93,27.7,46.27z"/>
</svg>
