<svg xmlns="http://www.w3.org/2000/svg" width="223.822" height="45.5" viewBox="0 0 223.822 45.5">
  <g id="logo_w" transform="translate(-313.003 -628.069)">
    <path id="path178" d="M412.72,672.649a11.66,11.66,0,0,0-4.766-1.346c-1.346,0-2.207.486-2.207,1.236,0,2.273,7.657,1.633,7.657,6.885,0,2.891-2.427,4.568-5.781,4.568a10.2,10.2,0,0,1-5.429-1.457V679.29c2.163,1.435,3.487,1.942,5.142,1.942,1.434,0,2.207-.507,2.207-1.39,0-2.472-7.658-1.567-7.658-6.973,0-2.6,2.251-4.325,5.738-4.325a12.3,12.3,0,0,1,5.1,1.17v2.934" transform="translate(-40.054 -18.24)" fill="#fff"/>
    <path id="path180" d="M434.709,685.851c-.331,0-.53-.2-.53-.706v-4.634c0-2.229-1.743-3.089-4.3-3.089a8.271,8.271,0,0,0-4.413,1.235v2.6a5.554,5.554,0,0,1,3.751-1.7c1.39,0,1.832.75,1.765,1.7-4.258,1.324-6.046,1.81-6.046,4.237a2.715,2.715,0,0,0,2.847,2.494,5.682,5.682,0,0,0,3.354-1.148c.221.817.728,1.148,1.787,1.148a6.67,6.67,0,0,0,3-.927v-1.788C435.172,685.807,434.929,685.851,434.709,685.851Zm-3.73-.529a2.707,2.707,0,0,1-1.765.772,1.06,1.06,0,0,1-1.037-1.081c0-1.015.905-1.457,2.8-2.141v2.45" transform="translate(-50.44 -22.241)" fill="#fff"/>
    <path id="path182" d="M444.205,677.782h3.42l2.162,5.6,2.185-5.6h3.4l-4.678,10.372H448.9l-4.7-10.372" transform="translate(-59.125 -22.403)" fill="#fff"/>
    <path id="path184" d="M468.593,683.225h7.3c.155-3.707-2.295-5.8-5.252-5.8a5.133,5.133,0,0,0-5.362,5.318c0,3.177,2.317,5.252,5.892,5.252a7.371,7.371,0,0,0,4.546-1.346v-2.009a5.974,5.974,0,0,1-3.774,1.457c-2.008,0-3.244-1.059-3.354-2.869Zm2.273-3.906a2.189,2.189,0,0,1,2.207,2.229h-4.414a2.163,2.163,0,0,1,2.207-2.229" transform="translate(-68.624 -22.241)" fill="#fff"/>
    <path id="path186" d="M504.358,677.343h-3.707v4.193a1.478,1.478,0,0,0,1.567,1.632,4.449,4.449,0,0,0,2.14-.595v2.317a7.244,7.244,0,0,1-2.957.64c-2.118,0-3.95-.971-3.95-3.818v-4.369H496v-.618l4.259-4.767h.4v3.2h3.707v2.185" transform="translate(-82.464 -19.778)" fill="#fff"/>
    <path id="path188" d="M516.7,675.284h.044a3.932,3.932,0,0,1,3.222-1.7,3.566,3.566,0,0,1,3.729,3.884v6.487h-3.2v-5.8c0-1.522-.662-2.228-1.655-2.228-.75,0-1.39.463-2.14,1.545v6.487h-3.2V668.907h3.2v6.377" transform="translate(-90.352 -18.403)" fill="#fff"/>
    <path id="path190" d="M538.41,683.225h7.3c.154-3.707-2.295-5.8-5.252-5.8a5.132,5.132,0,0,0-5.362,5.318c0,3.177,2.317,5.252,5.89,5.252a7.367,7.367,0,0,0,4.546-1.346v-2.009a5.968,5.968,0,0,1-3.773,1.457c-2.008,0-3.244-1.059-3.354-2.869Zm2.272-3.906a2.188,2.188,0,0,1,2.207,2.229h-4.413a2.161,2.161,0,0,1,2.206-2.229" transform="translate(-100.086 -22.241)" fill="#fff"/>
    <path id="path192" d="M581.891,682.49a11.684,11.684,0,0,1-5.914,1.5c-5.846,0-8.76-3.8-8.76-7.68,0-4.016,3.288-7.767,9.047-7.767a10.611,10.611,0,0,1,5.451,1.324v3.354a10.5,10.5,0,0,0-5.186-1.545c-3.2,0-5.451,1.9-5.451,4.568,0,2.692,2.229,4.612,5.363,4.612,1.964,0,3.288-.618,5.45-1.655v3.288" transform="translate(-114.56 -18.24)" fill="#fff"/>
    <path id="path194" d="M601.185,675.284h.044a3.932,3.932,0,0,1,3.222-1.7,3.566,3.566,0,0,1,3.729,3.884v6.487h-3.2v-5.8c0-1.522-.662-2.228-1.655-2.228-.75,0-1.39.463-2.14,1.545v6.487h-3.2V668.907h3.2v6.377" transform="translate(-128.425 -18.403)" fill="#fff"/>
    <path id="path196" d="M620.63,687.956h3.2V677.783h-3.2Z" transform="translate(-138.63 -22.403)" fill="#fff"/>
    <path id="path198" d="M623.84,670.309a1.765,1.765,0,1,1-1.765-1.765,1.771,1.771,0,0,1,1.765,1.765" transform="translate(-138.485 -18.24)" fill="#fff"/>
    <path id="path200" d="M630.713,683.956h3.2V668.907h-3.2Z" transform="translate(-143.174 -18.403)" fill="#fff"/>
    <path id="path202" d="M647.261,668.907v5.318a5.913,5.913,0,0,0-2.648-.64c-2.913,0-4.943,2.162-4.943,5.274,0,3.045,2.03,5.3,4.766,5.3a4.173,4.173,0,0,0,2.825-1.015v.816h3.2V668.907Zm0,12.269a2.684,2.684,0,0,1-1.9.838c-1.5,0-2.449-1.236-2.449-3.089,0-2.03.949-3.2,2.559-3.2a3.461,3.461,0,0,1,1.788.6v4.855" transform="translate(-147.21 -18.403)" fill="#fff"/>
    <path id="path204" d="M666.64,680.533h.044c.948-2.118,2.008-3.111,3.243-3.111a3.479,3.479,0,0,1,2.119.926l-.883,2.825a3.68,3.68,0,0,0-1.9-.75c-1.169,0-1.919,1.1-2.625,2.979v4.391h-3.2V677.62h3.2v2.913" transform="translate(-157.922 -22.241)" fill="#fff"/>
    <path id="path206" d="M682.858,683.225h7.3c.154-3.707-2.295-5.8-5.252-5.8a5.132,5.132,0,0,0-5.362,5.318c0,3.177,2.317,5.252,5.892,5.252a7.366,7.366,0,0,0,4.545-1.346v-2.009a5.968,5.968,0,0,1-3.773,1.457c-2.008,0-3.244-1.059-3.354-2.869Zm2.273-3.906a2.188,2.188,0,0,1,2.206,2.229h-4.413a2.163,2.163,0,0,1,2.207-2.229" transform="translate(-165.181 -22.241)" fill="#fff"/>
    <path id="path208" d="M705.03,679.076a4.1,4.1,0,0,1,3.31-1.654,3.561,3.561,0,0,1,3.707,3.906v6.465h-3.2v-6.2c0-1.434-.684-2.03-1.588-2.03-.8,0-1.391.419-2.229,1.677v6.554h-3.2V677.62h3.2v1.456" transform="translate(-175.222 -22.24)" fill="#fff"/>
    <path id="path210" d="M353.458,640.477c2.029-2.086,2.929-3.052,2.788-3.623a1.917,1.917,0,0,0-1.159-1.122,2.963,2.963,0,0,0-2.155-.254,7.315,7.315,0,0,0-1.137,1.038l-.64.628h0c-.352-.411-.727-.823-1.1-1.193a20.219,20.219,0,0,0-9.846-5.417,6.2,6.2,0,0,0-5.332-2.442,6,6,0,0,0-4.275,2.486,22.681,22.681,0,0,0-10.531,5.7v0a4.682,4.682,0,0,0-2.853.326,1.43,1.43,0,0,0-.889.867c-.066.26.014.678.985,1.953v0a22.344,22.344,0,0,0-4.288,14.164,20.409,20.409,0,0,0,5.913,13.481,20.121,20.121,0,0,0,4.2,3.222h0a24.883,24.883,0,0,0,23.2.772l.014-.006a1.261,1.261,0,0,0,.607-1.623l-.073-.2c-.985-2.69-3.984-10.881-1.512-18,1.036-2.978,3.639-6.046,5.871-8.44h0a19.848,19.848,0,0,1,2.362,11.641A18.136,18.136,0,0,1,349.3,664.4h0a.425.425,0,0,0-.117.294.717.717,0,0,0,.022.137l.19.538a.43.43,0,0,0,.716.141h.014a21.828,21.828,0,0,0,3.344-25.038h0Zm-26.9,15.379a41.088,41.088,0,0,0-1.357,12.054v0a20.539,20.539,0,0,1-4-3.107,20.18,20.18,0,0,1-5.816-12.056,18.7,18.7,0,0,1,2.847-12.183h0c.724.867,1.6,1.869,2.523,2.916a62.764,62.764,0,0,1,6.007,7.491c.695,1.17.357,2.57-.2,4.888Zm22.252-16.537c-4.762,4.172-9.129,6.311-12.969,6.337a15.594,15.594,0,0,1-9.077-3.241,35.675,35.675,0,0,1-5.587-5.1l-.117-.125h0a18.2,18.2,0,0,1,8.386-4.435s0,0,0,0h0s0,0,0,0a9.14,9.14,0,0,0-.445,3.784,8.607,8.607,0,0,0,2.894,5.849,5.771,5.771,0,0,0,8.4-.735,8.6,8.6,0,0,0,1.833-6.263,9.5,9.5,0,0,0-.2-1.279h0a20.32,20.32,0,0,1,5.858,4.1c.347.349.692.718,1.025,1.1h0" fill="#ed1b2d"/>
  </g>
</svg>
